<?xml version="1.0" encoding="UTF-8" standalone="no" ?>
<!DOCTYPE svg PUBLIC "-//W3C//DTD SVG 1.1//EN" "http://www.w3.org/Graphics/SVG/1.1/DTD/svg11.dtd">
<svg xmlns="http://www.w3.org/2000/svg" xmlns:xlink="http://www.w3.org/1999/xlink" version="1.1" width="1080" height="1080" viewBox="0 0 1080 1080" xml:space="preserve">
<desc>Created with Fabric.js 5.2.4</desc>
<defs>
</defs>
<g transform="matrix(1 0 0 1 540 540)" id="1fc391cf-e97a-4113-b9f5-b1b8f74d3068"  >
<rect style="stroke: none; stroke-width: 1; stroke-dasharray: none; stroke-linecap: butt; stroke-dashoffset: 0; stroke-linejoin: miter; stroke-miterlimit: 4; fill: rgb(255,255,255); fill-rule: nonzero; opacity: 1; visibility: hidden;" vector-effect="non-scaling-stroke"  x="-540" y="-540" rx="0" ry="0" width="1080" height="1080" />
</g>
<g transform="matrix(1 0 0 1 540 540)" id="3fe6f568-db24-46c6-ade5-db32a8711250"  >
</g>
<g transform="matrix(1 0 0 1 540 540)"  >
<g style="" vector-effect="non-scaling-stroke"   >
		<g transform="matrix(0.13 0 0 -0.13 0.03 -236.13)"  >
<path style="stroke: none; stroke-width: 1; stroke-dasharray: none; stroke-linecap: butt; stroke-dashoffset: 0; stroke-linejoin: miter; stroke-miterlimit: 4; fill: rgb(0,0,0); fill-rule: nonzero; opacity: 1;" vector-effect="non-scaling-stroke"  transform=" translate(-6000.24, -7771.29)" d="M 5878 8797 C 5565 8636 5105 8242 4880 7942 C 4783 7813 4731 7716 4695 7595 C 4680 7546 4634 7413 4593 7300 C 4552 7187 4503 7043 4485 6980 C 4450 6858 4422 6714 4432 6705 C 4435 6701 4469 6721 4506 6748 C 4911 7042 5637 7321 5995 7321 C 6347 7321 7039 7059 7468 6763 C 7520 6728 7564 6701 7568 6704 C 7586 6723 7505 7019 7410 7280 C 7373 7382 7327 7515 7307 7577 C 7246 7767 7174 7885 7004 8080 C 6767 8352 6369 8675 6112 8804 C 6016 8852 5983 8851 5878 8797 z" stroke-linecap="round" />
</g>
		<g transform="matrix(0.13 0 0 -0.13 -0.87 -68.36)"  >
<path style="stroke: none; stroke-width: 1; stroke-dasharray: none; stroke-linecap: butt; stroke-dashoffset: 0; stroke-linejoin: miter; stroke-miterlimit: 4; fill: rgb(0,0,0); fill-rule: nonzero; opacity: 1;" vector-effect="non-scaling-stroke"  transform=" translate(-5993.5, -6513.02)" d="M 5845 7144 C 5661 7111 5435 7040 5204 6943 L 5072 6888 L 5087 6822 C 5122 6668 5199 6503 5291 6384 C 5407 6233 5637 6055 5884 5925 L 5992 5867 L 6063 5901 C 6174 5954 6352 6063 6453 6138 C 6559 6218 6688 6349 6747 6435 C 6832 6561 6910 6754 6913 6847 L 6915 6894 L 6794 6946 C 6503 7071 6167 7161 5995 7159 C 5957 7159 5889 7152 5845 7144 z" stroke-linecap="round" />
</g>
		<g transform="matrix(0.13 0 0 -0.13 0 120.04)"  >
<path style="stroke: none; stroke-width: 1; stroke-dasharray: none; stroke-linecap: butt; stroke-dashoffset: 0; stroke-linejoin: miter; stroke-miterlimit: 4; fill: rgb(0,0,0); fill-rule: nonzero; opacity: 1;" vector-effect="non-scaling-stroke"  transform=" translate(-6000, -5100)" d="M 4841 6769 C 4712 6699 4499 6552 4462 6508 C 4452 6495 4489 6423 4686 6080 C 4815 5853 4924 5661 4927 5653 C 4931 5642 4916 5640 4840 5642 L 4747 5645 L 4613 5880 C 4539 6009 4475 6119 4470 6124 C 4458 6136 4315 6075 4187 6003 C 4078 5942 4063 5925 3954 5746 L 3893 5645 L 2826 5640 L 1759 5635 L 1975 5323 C 2093 5151 2190 5006 2190 5000 C 2190 4995 2096 4853 1980 4685 C 1864 4518 1770 4376 1770 4370 C 1770 4363 2023 4360 2551 4360 C 3291 4360 3332 4359 3324 4343 C 3320 4333 3315 4275 3312 4214 C 3307 4088 3328 3984 3379 3875 C 3460 3702 3632 3540 3811 3470 L 3857 3452 L 3883 3481 C 3907 3509 3912 3510 3989 3510 L 4070 3510 L 4070 3935 L 4070 4360 L 4155 4360 L 4240 4360 L 4240 3935 L 4240 3510 L 4836 3510 L 5432 3510 L 5379 3558 C 5317 3614 5258 3701 5229 3782 C 5217 3814 5205 3840 5202 3840 C 5200 3840 5178 3822 5154 3800 C 5111 3760 5110 3760 5031 3760 C 4963 3760 4949 3757 4941 3741 C 4924 3711 4863 3687 4814 3693 C 4692 3706 4640 3842 4721 3935 C 4777 3999 4861 4005 4924 3950 C 4950 3927 4967 3920 5000 3920 C 5038 3920 5049 3926 5107 3980 C 5142 4013 5175 4040 5180 4040 C 5186 4040 5190 4067 5190 4100 L 5190 4160 L 5041 4160 C 4912 4160 4889 4158 4874 4143 C 4839 4106 4804 4090 4762 4090 C 4676 4090 4610 4150 4610 4228 C 4610 4273 4637 4335 4664 4352 C 4670 4356 4714 4360 4761 4360 C 4834 4360 4850 4357 4865 4340 C 4882 4322 4896 4320 5037 4320 C 5183 4320 5190 4321 5190 4340 C 5190 4358 5197 4360 5269 4360 L 5348 4360 L 5352 4133 C 5356 3934 5359 3898 5377 3848 C 5404 3776 5423 3746 5479 3687 C 5537 3626 5606 3584 5769 3511 C 5840 3479 5921 3439 5949 3421 L 6000 3390 L 6057 3427 C 6089 3447 6155 3481 6205 3503 C 6442 3605 6546 3682 6599 3794 C 6640 3878 6650 3954 6650 4173 L 6650 4360 L 6730 4360 C 6803 4360 6810 4358 6810 4340 C 6810 4321 6817 4320 6963 4320 C 7104 4320 7118 4322 7135 4340 C 7150 4357 7166 4360 7240 4360 C 7322 4360 7328 4359 7354 4331 C 7374 4310 7384 4288 7387 4256 C 7394 4199 7378 4159 7333 4120 C 7287 4079 7213 4078 7157 4115 C 7137 4129 7120 4145 7120 4151 C 7120 4157 7063 4159 6968 4158 L 6815 4155 L 6813 4100 L 6810 4045 L 6881 3983 C 6948 3924 6956 3920 7002 3920 C 7035 3920 7052 3925 7056 3935 C 7059 3943 7082 3959 7106 3970 C 7180 4006 7266 3976 7305 3899 C 7350 3812 7272 3690 7172 3690 C 7136 3690 7072 3719 7051 3744 C 7041 3756 7019 3760 6963 3760 L 6889 3760 L 6841 3805 L 6792 3851 L 6780 3813 C 6754 3734 6694 3634 6634 3573 L 6572 3510 L 7171 3510 L 7770 3510 L 7770 3935 L 7770 4360 L 7850 4360 L 7930 4360 L 7930 3936 L 7930 3512 L 8014 3509 C 8086 3506 8102 3502 8124 3481 L 8149 3457 L 8206 3480 C 8237 3493 8295 3524 8334 3550 C 8520 3673 8641 3850 8681 4058 C 8693 4120 8689 4291 8675 4337 L 8668 4360 L 9453 4362 L 10239 4365 L 10025 4677 C 9907 4848 9810 4993 9810 4998 C 9810 5003 9907 5148 10026 5321 L 10241 5635 L 9173 5638 L 8105 5640 L 8066 5708 C 7997 5827 7918 5940 7891 5959 C 7847 5990 7699 6067 7613 6104 L 7531 6139 L 7388 5889 L 7246 5640 L 7158 5640 C 7110 5640 7070 5642 7070 5645 C 7070 5648 7178 5840 7311 6072 L 7551 6495 L 7511 6531 C 7445 6590 7298 6691 7188 6753 C 7132 6784 7082 6810 7078 6810 C 7073 6810 7070 6804 7070 6796 C 7070 6764 7016 6599 6979 6521 C 6920 6394 6838 6279 6728 6167 L 6629 6065 L 6630 5853 L 6631 5640 L 6551 5640 L 6470 5640 L 6470 5790 C 6470 5873 6467 5940 6464 5940 C 6461 5940 6414 5914 6361 5881 C 6207 5788 6036 5700 6007 5700 C 5975 5700 5796 5788 5657 5872 C 5603 5904 5552 5934 5544 5937 C 5532 5941 5530 5919 5530 5791 L 5530 5640 L 5450 5640 L 5370 5640 L 5370 5852 L 5370 6063 L 5272 6164 C 5110 6331 5018 6482 4959 6675 C 4942 6730 4925 6783 4922 6792 C 4916 6808 4907 6805 4841 6769 z M 2958 5466 C 3061 5450 3133 5420 3198 5364 L 3241 5328 L 3238 5231 L 3235 5135 L 3130 5135 L 3025 5135 L 3022 5178 C 3018 5234 2991 5252 2897 5258 C 2798 5264 2748 5248 2689 5193 C 2634 5142 2610 5082 2610 4998 C 2610 4835 2693 4751 2861 4742 C 2966 4737 3034 4760 3042 4804 C 3052 4856 3034 4864 2922 4856 C 2851 4851 2820 4853 2815 4861 C 2801 4882 2797 4996 2809 5018 C 2820 5040 2825 5040 3035 5040 C 3193 5040 3251 5037 3256 5028 C 3261 5021 3263 4942 3261 4851 C 3259 4704 3256 4684 3238 4659 C 3204 4613 3139 4574 3050 4545 C 2977 4521 2948 4517 2850 4517 C 2626 4517 2488 4591 2398 4757 C 2340 4863 2337 5104 2392 5220 C 2424 5287 2516 5372 2603 5415 C 2667 5446 2750 5467 2855 5479 C 2861 5479 2907 5474 2958 5466 z M 4194 5435 C 4204 5399 4200 5179 4190 5159 C 4178 5138 4124 5134 4045 5148 C 4006 5155 4005 5157 4000 5200 L 3995 5245 L 3875 5241 C 3801 5239 3752 5233 3747 5226 C 3735 5209 3747 5108 3762 5099 C 3769 5094 3819 5090 3873 5090 L 3971 5090 L 3968 4993 L 3965 4895 L 3866 4893 C 3743 4890 3735 4885 3745 4806 L 3752 4750 L 3886 4750 L 4020 4750 L 4020 4794 L 4020 4837 L 4107 4843 C 4158 4847 4199 4845 4204 4840 C 4216 4828 4220 4541 4208 4534 C 4196 4527 3414 4529 3395 4536 C 3377 4543 3374 4672 3390 4715 C 3399 4738 3403 4740 3436 4734 C 3462 4729 3475 4731 3481 4741 C 3495 4763 3492 5234 3478 5248 C 3471 5255 3449 5260 3429 5260 C 3392 5260 3392 5260 3385 5310 C 3381 5338 3381 5381 3385 5408 L 3391 5455 L 3790 5455 C 4183 5456 4189 5455 4194 5435 z M 4687 5428 C 4703 5410 4732 5373 4750 5345 C 4768 5318 4807 5268 4836 5234 C 4865 5201 4906 5147 4928 5114 C 4981 5035 5039 4974 5049 4986 C 5054 4991 5055 5053 5053 5123 L 5047 5251 L 5006 5248 L 4965 5245 L 4962 5339 C 4960 5399 4963 5437 4971 5446 C 4980 5457 5021 5460 5170 5460 C 5273 5460 5372 5457 5389 5454 L 5420 5448 L 5420 5359 C 5420 5260 5413 5250 5346 5250 L 5310 5250 L 5312 4899 C 5313 4606 5311 4547 5299 4539 C 5291 4534 5240 4530 5185 4530 L 5085 4530 L 4950 4711 C 4876 4810 4796 4915 4773 4943 C 4749 4971 4730 4997 4730 5002 C 4730 5006 4723 5010 4715 5010 C 4702 5010 4700 4988 4700 4875 L 4700 4740 L 4738 4740 C 4798 4740 4801 4734 4798 4629 L 4795 4535 L 4565 4535 L 4335 4535 L 4332 4623 C 4329 4727 4335 4740 4388 4733 C 4413 4730 4429 4733 4436 4741 C 4443 4750 4445 4838 4442 5003 L 4438 5250 L 4394 5250 C 4361 5250 4348 5255 4340 5269 C 4325 5298 4327 5447 4343 5453 C 4349 5456 4423 5459 4506 5459 L 4656 5460 L 4687 5428 z M 6308 5445 C 6322 5431 6310 5378 6283 5339 C 6267 5315 6237 5265 6217 5228 C 6197 5192 6121 5074 6050 4966 C 5978 4858 5922 4765 5925 4760 C 5928 4754 5971 4750 6021 4750 L 6110 4750 L 6110 4814 L 6110 4877 L 6213 4883 C 6269 4886 6318 4885 6323 4881 C 6327 4877 6329 4797 6328 4704 L 6325 4535 L 5925 4535 L 5525 4535 L 5522 4570 C 5519 4602 5542 4641 5720 4914 C 5847 5107 5919 5227 5916 5237 C 5911 5249 5898 5251 5837 5245 C 5798 5241 5764 5236 5762 5235 C 5760 5233 5756 5207 5753 5177 L 5747 5122 L 5653 5115 C 5601 5111 5555 5111 5550 5116 C 5538 5128 5537 5154 5538 5312 L 5540 5449 L 5643 5453 C 5778 5458 6302 5451 6308 5445 z M 7141 5453 C 7150 5451 7164 5435 7171 5417 C 7178 5399 7213 5324 7250 5250 C 7287 5176 7345 5047 7378 4963 C 7462 4756 7472 4740 7520 4740 C 7574 4740 7581 4726 7578 4623 L 7575 4535 L 7358 4535 C 7227 4535 7137 4539 7131 4545 C 7125 4551 7123 4586 7127 4632 C 7132 4699 7135 4709 7153 4712 C 7183 4716 7196 4744 7184 4777 L 7175 4805 L 7013 4808 C 6858 4810 6850 4810 6840 4790 C 6821 4754 6831 4726 6865 4720 L 6895 4715 L 6895 4625 L 6895 4535 L 6670 4535 L 6445 4535 L 6440 4624 C 6434 4728 6441 4740 6500 4740 L 6539 4740 L 6581 4828 C 6704 5088 6751 5193 6756 5220 C 6762 5248 6761 5250 6732 5250 C 6672 5250 6670 5254 6670 5354 C 6670 5405 6673 5449 6676 5453 C 6683 5460 7115 5460 7141 5453 z M 8370 5426 C 8488 5381 8529 5350 8599 5249 C 8644 5184 8660 5123 8660 5009 C 8660 4932 8655 4894 8636 4836 C 8601 4731 8587 4708 8527 4656 C 8404 4551 8308 4530 7950 4530 C 7808 4530 7689 4534 7686 4538 C 7678 4551 7676 4719 7684 4727 C 7688 4731 7712 4733 7738 4732 L 7785 4730 L 7785 4993 L 7785 5255 L 7745 5256 C 7723 5256 7699 5258 7693 5258 C 7679 5260 7674 5441 7687 5454 C 7691 5458 7830 5460 7995 5458 L 8295 5454 L 8370 5426 z M 9544 5435 C 9554 5399 9550 5179 9540 5159 C 9528 5138 9474 5134 9395 5148 C 9356 5155 9355 5157 9350 5200 L 9345 5245 L 9225 5241 C 9151 5239 9102 5233 9097 5226 C 9085 5209 9097 5108 9112 5099 C 9119 5094 9169 5090 9223 5090 L 9321 5090 L 9318 4993 L 9315 4895 L 9216 4893 C 9093 4890 9085 4885 9095 4806 L 9102 4750 L 9236 4750 L 9370 4750 L 9370 4794 L 9370 4837 L 9457 4843 C 9508 4847 9549 4845 9554 4840 C 9566 4828 9570 4541 9558 4534 C 9546 4527 8764 4529 8745 4536 C 8727 4543 8724 4672 8740 4715 C 8749 4738 8753 4740 8786 4734 C 8812 4729 8825 4731 8831 4741 C 8845 4763 8842 5234 8828 5248 C 8821 5255 8799 5260 8779 5260 C 8742 5260 8742 5260 8735 5310 C 8731 5338 8731 5381 8735 5408 L 8741 5455 L 9140 5455 C 9533 5456 9539 5455 9544 5435 z M 6390 4124 C 6390 3903 6389 3885 6369 3850 C 6327 3776 6321 3775 6000 3775 C 5593 3775 5610 3760 5610 4119 L 5610 4360 L 6000 4360 L 6390 4360 L 6390 4124 z" stroke-linecap="round" />
</g>
		<g transform="matrix(0.13 0 0 -0.13 134.04 120.04)"  >
<path style="stroke: none; stroke-width: 1; stroke-dasharray: none; stroke-linecap: butt; stroke-dashoffset: 0; stroke-linejoin: miter; stroke-miterlimit: 4; fill: rgb(0,0,0); fill-rule: nonzero; opacity: 1;" vector-effect="non-scaling-stroke"  transform=" translate(-7005.3, -5100)" d="M 6983 5173 C 6980 5163 6966 5131 6953 5101 C 6919 5023 6926 5010 7006 5010 C 7054 5010 7072 5014 7076 5025 C 7080 5033 7070 5074 7055 5115 C 7034 5172 7023 5190 7008 5190 C 6998 5190 6987 5182 6983 5173 z" stroke-linecap="round" />
</g>
		<g transform="matrix(0.13 0 0 -0.13 296.28 133.81)"  >
<path style="stroke: none; stroke-width: 1; stroke-dasharray: none; stroke-linecap: butt; stroke-dashoffset: 0; stroke-linejoin: miter; stroke-miterlimit: 4; fill: rgb(0,0,0); fill-rule: nonzero; opacity: 1;" vector-effect="non-scaling-stroke"  transform=" translate(-8222.09, -4996.71)" d="M 8073 5242 L 8041 5239 L 8038 5137 C 8036 5081 8036 4971 8038 4893 L 8041 4750 L 8141 4750 C 8258 4750 8291 4761 8342 4818 C 8378 4858 8393 4894 8406 4977 C 8416 5044 8380 5149 8330 5194 C 8308 5213 8280 5232 8268 5234 C 8237 5241 8112 5246 8073 5242 z" stroke-linecap="round" />
</g>
		<g transform="matrix(0.13 0 0 -0.13 0 250.7)"  >
<path style="stroke: none; stroke-width: 1; stroke-dasharray: none; stroke-linecap: butt; stroke-dashoffset: 0; stroke-linejoin: miter; stroke-miterlimit: 4; fill: rgb(0,0,0); fill-rule: nonzero; opacity: 1;" vector-effect="non-scaling-stroke"  transform=" translate(-6000, -4120)" d="M 5770 4120 L 5770 3940 L 6000 3940 L 6230 3940 L 6230 4120 L 6230 4300 L 6000 4300 L 5770 4300 L 5770 4120 z M 6074 4236 C 6114 4199 6121 4156 6095 4110 C 6087 4096 6081 4071 6080 4053 C 6080 4034 6070 4010 6057 3994 C 6010 3939 5920 3975 5920 4049 C 5920 4069 5913 4094 5905 4104 C 5897 4115 5890 4141 5890 4163 C 5890 4194 5897 4209 5924 4236 C 5972 4284 6024 4284 6074 4236 z" stroke-linecap="round" />
</g>
		<g transform="matrix(0.13 0 0 -0.13 0.51 365.92)"  >
<path style="stroke: none; stroke-width: 1; stroke-dasharray: none; stroke-linecap: butt; stroke-dashoffset: 0; stroke-linejoin: miter; stroke-miterlimit: 4; fill: rgb(0,0,0); fill-rule: nonzero; opacity: 1;" vector-effect="non-scaling-stroke"  transform=" translate(-6003.79, -3255.88)" d="M 4022 3258 L 4025 3165 L 5994 3162 C 7473 3161 7966 3163 7977 3172 C 7987 3180 7990 3204 7988 3264 L 7985 3345 L 7122 3348 L 6258 3350 L 6197 3321 C 6163 3304 6111 3271 6082 3246 C 6012 3186 5988 3186 5918 3245 C 5889 3270 5839 3304 5806 3320 L 5747 3350 L 4883 3350 L 4019 3350 L 4022 3258 z" stroke-linecap="round" />
</g>
</g>
</g>
<g transform="matrix(15.01 0 0 12.23 546.5 635.65)" id="4b0532a2-b2b5-4d34-b6b3-1b91145d2b01"  >
<path style="stroke: rgb(0,0,0); stroke-width: 13; stroke-dasharray: none; stroke-linecap: butt; stroke-dashoffset: 0; stroke-linejoin: miter; stroke-miterlimit: 4; fill: rgb(0,0,0); fill-rule: nonzero; opacity: 1;" vector-effect="non-scaling-stroke"  transform=" translate(-50, -50)" d="M 50 92.875 C 26.358 92.875 7.125 73.642 7.125 50 C 7.125 26.358000000000004 26.358 7.125 50 7.125 C 73.642 7.125 92.875 26.358 92.875 50 C 92.875 73.642 73.642 92.875 50 92.875 z M 50 9.125 C 27.461 9.125 9.125 27.461 9.125 50 C 9.125 72.538 27.461 90.875 50 90.875 C 72.538 90.875 90.875 72.538 90.875 50 C 90.875 27.461 72.538 9.125 50 9.125 z" stroke-linecap="round" />
</g>
</svg>
